<svg xmlns="http://www.w3.org/2000/svg" xmlns:xlink="http://www.w3.org/1999/xlink" width="28.151" height="28.151" viewBox="0 0 28.151 28.151"><defs><style>.a,.c{fill:#fff;}.b{clip-path:url(#a);}.c{stroke:rgba(0,0,0,0);stroke-miterlimit:10;}</style><clipPath id="a"><rect class="a" width="28.151" height="28.151" rx="14.075"/></clipPath></defs><g class="b"><g transform="translate(0 -0.023)"><path class="c" d="M15.036,28.152H4.224A4.229,4.229,0,0,1,0,23.927V4.225A4.229,4.229,0,0,1,4.224,0h19.7a4.229,4.229,0,0,1,4.224,4.225v19.7a4.229,4.229,0,0,1-4.224,4.225h-4.5v-10.9h3.659L23.631,13H19.424V10.29c0-1.242.358-2.069,2.105-2.069h2.25V4.42A30.306,30.306,0,0,0,20.5,4.252c-3.371,0-5.465,2.152-5.465,5.617V13H11.368v4.248h3.668v10.9Z" transform="translate(0 0)"/></g></g></svg>