<svg xmlns="http://www.w3.org/2000/svg" width="28.151" height="27.404" viewBox="0 0 28.151 27.404"><defs><style>.a{fill:#fff;}</style></defs><path class="a" d="M1661.5,436.167a14.075,14.075,0,1,0-18.655,13.313,1.349,1.349,0,0,0,.725-1.048c0-.774-.017-2.766-.017-2.766a9.759,9.759,0,0,1-1.483.1,3.187,3.187,0,0,1-3.222-2.175,3.812,3.812,0,0,0-1.581-1.875c-.364-.234-.448-.511-.027-.59,1.945-.364,2.442,2.193,3.741,2.6a3.654,3.654,0,0,0,2.712-.216,2.8,2.8,0,0,1,1.116-1.813c-3.3-.316-5.262-1.457-6.277-3.291l-.109-.205-.255-.583-.075-.209a9.864,9.864,0,0,1-.459-3.188,5.442,5.442,0,0,1,1.552-4.039,5.639,5.639,0,0,1,.244-4.058s1.43-.295,4.133,1.63a15.062,15.062,0,0,1,7.219-.139c1.134-.746,3.208-1.8,4.045-1.507.227.363.715,1.421.3,3.744a6.536,6.536,0,0,1,1.767,4.665,12.091,12.091,0,0,1-.362,2.9l-.122.413s-.07.195-.146.381l-.089.205c-.98,2.141-2.99,2.94-6.239,3.272,1.053.659,1.355,1.486,1.355,3.723s-.03,2.538-.023,3.052a1.421,1.421,0,0,0,.7,1.029A14.081,14.081,0,0,0,1661.5,436.167Z" transform="translate(-1633.353 -422.092)"/></svg>