<svg xmlns="http://www.w3.org/2000/svg" width="28.151" height="28.15" viewBox="0 0 28.151 28.15"><defs><style>.a{fill:#fff;}</style></defs><g transform="translate(-870 -6333.182)"><path class="a" d="M1452.207,431.106h-11.9a8.125,8.125,0,0,0-8.125,8.125v11.9a8.125,8.125,0,0,0,8.125,8.125h11.9a8.125,8.125,0,0,0,8.126-8.125v-11.9a8.125,8.125,0,0,0-8.126-8.125m5.533,20.234a5.393,5.393,0,0,1-5.394,5.393h-12.178a5.394,5.394,0,0,1-5.393-5.393V439.161a5.394,5.394,0,0,1,5.393-5.393h12.178a5.393,5.393,0,0,1,5.394,5.393Z" transform="translate(-562.182 5902.076)"/><path class="a" d="M1454.768,444.763a9.068,9.068,0,1,0,9.069,9.068,9.068,9.068,0,0,0-9.069-9.068m0,14.946a5.878,5.878,0,1,1,5.878-5.878,5.878,5.878,0,0,1-5.878,5.878" transform="translate(-570.693 5893.478)"/><path class="a" d="M1473.21,440.812a1.258,1.258,0,1,0,1.258,1.258,1.258,1.258,0,0,0-1.258-1.258" transform="translate(-581.317 5897.406)"/></g></svg>