<svg xmlns="http://www.w3.org/2000/svg" width="30" height="30" viewBox="0 0 30 30"><defs><style>.a{fill:#ff3f75;}.b{fill:#fff;}</style></defs><g transform="translate(-33 -4539)"><g transform="translate(-183 1478)"><circle class="a" cx="15" cy="15" r="15" transform="translate(216 3061)"/></g><g transform="translate(35.5 4532.846)"><path class="b" d="M16.828,26.121a5.985,5.985,0,0,0-5.9,5.8,3.32,3.32,0,0,1-.085.593c-.169,1.735-.974,3.048-2.455,3.048-1.5,0-2.307-1.354-2.455-3.132a3.277,3.277,0,0,1-.021-.466h0v-.212c0-2.1,1.037-3.81,2.476-3.81a2.367,2.367,0,0,1,2.032,1.566,7.279,7.279,0,0,1,1.418-2.286A5.681,5.681,0,0,0,8.257,26.1a5.757,5.757,0,1,0,0,11.513,5.866,5.866,0,0,0,5.9-5.693h0c.021-.19.042-.508.085-.7.169-1.735.974-3.048,2.455-3.048,1.5,0,2.307,1.354,2.455,3.132a3.277,3.277,0,0,1,.021.466h0v.212c0,2.1-1.016,3.81-2.476,3.81a2.281,2.281,0,0,1-2.032-1.46,6.725,6.725,0,0,1-1.354,2.2,4.617,4.617,0,0,0,3.492,1.1A5.655,5.655,0,0,0,22.5,31.941,5.887,5.887,0,0,0,16.828,26.121Z" transform="translate(0 -10.328)"/><path class="b" d="M43.1,16.28a7.887,7.887,0,0,1,.91-.635A2.937,2.937,0,0,0,42.025,13L41.2,15.18A5.744,5.744,0,0,1,43.1,16.28Z" transform="translate(-30.51 0)"/></g></g></svg>