<svg xmlns="http://www.w3.org/2000/svg" width="53.952" height="43" viewBox="0 0 53.952 43"><defs><style>.a{fill:#3a5d7e;}</style></defs><g transform="translate(-98.488 -518.711)"><path class="a" d="M0,0H20.291a3.28,3.28,0,0,1,3.28,3.28V20.291a3.28,3.28,0,0,1-3.28,3.28H3.28A3.28,3.28,0,0,1,0,20.291V0A0,0,0,0,1,0,0Z" transform="translate(98.488 538.14)"/><path class="a" d="M2640.429,482A20.429,20.429,0,0,0,2620,502.429h10.006a10.422,10.422,0,0,1,10.423-10.423V482Z" transform="translate(-2521.512 36.711)"/><path class="a" d="M0,0H19.492a4.079,4.079,0,0,1,4.079,4.079V19.492a4.079,4.079,0,0,1-4.079,4.079H4.079A4.079,4.079,0,0,1,0,19.492V0A0,0,0,0,1,0,0Z" transform="translate(128.869 538.14)"/><path class="a" d="M2670.809,482a20.428,20.428,0,0,0-20.428,20.429h10.006a10.422,10.422,0,0,1,10.423-10.423V482Z" transform="translate(-2521.512 36.711)"/></g></svg>